nColumns=19
nRows=48
DataType=double
version=3
OpenSimVersion=4.1
endheader
time	ground_force_calcn_r_vx	ground_force_calcn_r_vy	ground_force_calcn_r_vz	ground_force_calcn_r_px	ground_force_calcn_r_py	ground_force_calcn_r_pz	ground_force_calcn_r_mx	ground_force_calcn_r_my	ground_force_calcn_r_mz	ground_force_calcn_l_vx	ground_force_calcn_l_vy	ground_force_calcn_l_vz	ground_force_calcn_l_px	ground_force_calcn_l_py	ground_force_calcn_l_pz	ground_force_calcn_l_mx	ground_force_calcn_l_my	ground_force_calcn_l_mz
0.81	-4.41402	11.5311	-6.74591	0.86039	0	-0.302065	0.341943	-0.893283	0.522589	0.852977	3.17176	1.8451	-0.000463401	0	-0.000165971	1.66886e-20	6.20557e-20	3.60995e-20
0.82	-22.1731	47.9333	-14.5777	0.903544	0	-0.330136	0.42066	-0.909371	0.276561	-0.321421	2.99867	2.48367	-0.000463401	0	-0.000165971	1.20176e-20	-1.12117e-19	-9.28615e-20
0.83	-59.1688	145.945	-26.4362	0.925437	0	-0.34107	0.248044	-0.611823	0.110824	-0.785263	2.05253	2.57912	-0.000463401	0	-0.000165971	1.25631e-20	-3.28377e-20	-4.12624e-20
0.84	-100.407	313.864	-40.1802	0.933711	0	-0.34574	0.0394642	-0.123361	0.0157925	-1.30542	1.89628	2.47298	-0.000463401	0	-0.000165971	-3.51838e-20	5.11089e-20	6.6652e-20
0.85	-110.311	515.315	-52.6615	0.923201	0	-0.350574	-0.0669298	0.31266	-0.0319517	-2.13321	1.89488	2.02865	-0.000463401	0	-0.000165971	-1.28393e-19	1.14048e-19	1.22099e-19
0.86	-89.3518	730.403	-62.0987	0.89719	0	-0.356251	-0.0532815	0.435548	-0.0370302	-1.91296	1.97279	0.816109	-0.000463401	0	-0.000165971	1.15829e-20	-1.19451e-20	-4.94149e-21
0.87	-84.6013	958.842	-67.813	0.873513	0	-0.361216	-0.0122592	0.138941	-0.00982647	1.11222	3.7143	-0.737555	-0.000463401	0	-0.000165971	2.07707e-20	6.93646e-20	-1.37738e-20
0.88	-111.697	1175.05	-69.6957	0.858746	0	-0.365549	0.0399519	-0.420296	0.0249289	2.27129	4.69324	-1.71733	-0.000463401	0	-0.000165971	-6.01882e-20	-1.24369e-19	4.55086e-20
0.89	-139.525	1351.85	-69.7278	0.844875	0	-0.369722	0.0924564	-0.895799	0.0462051	0.175141	3.76724	-2.09256	-0.000463401	0	-0.000165971	-2.9384e-21	-6.32043e-20	3.51077e-20
0.9	-141.546	1488.18	-71.9836	0.827439	0	-0.37275	0.0857044	-0.901074	0.043585	0.56425	3.6094	-2.53148	-0.000463401	0	-0.000165971	-9.56987e-22	-6.12167e-21	4.29349e-21
0.91	-126.225	1593.6	-79.6528	0.809626	0	-0.374017	0.0141878	-0.179122	0.00895301	3.35619	4.00054	-2.91951	-0.000463401	0	-0.000165971	-8.26966e-20	-9.85735e-20	7.19369e-20
0.92	-112.921	1671.14	-92.4391	0.794636	0	-0.373911	-0.0850134	1.25813	-0.0695937	3.54438	3.60548	-2.52803	-0.000463401	0	-0.000165971	-6.79821e-20	-6.9154e-20	4.84882e-20
0.93	-101.226	1718.05	-107.045	0.78118	0	-0.372988	-0.183633	3.1167	-0.194189	1.80127	3.22325	-1.62687	-0.000463401	0	-0.000165971	-0	-0	0
0.94	-83.6158	1735.42	-119.401	0.766972	0	-0.37181	-0.238333	4.94654	-0.340333	1.49435	2.62843	-1.23433	-0.000463401	0	-0.000165971	-2.48054e-20	-4.36305e-20	2.04892e-20
0.95	-62.2627	1727.79	-126.516	0.751905	0	-0.370659	-0.227505	6.31326	-0.462283	2.4707	1.71315	-1.41051	-0.000463401	0	-0.000165971	-0	-0	0
0.96	-40.5941	1697.53	-127.933	0.73667	0	-0.369588	-0.165983	6.94094	-0.523097	2.6219	1.08524	-1.42071	-0.000463401	0	-0.000165971	-4.68669e-20	-1.93988e-20	2.53955e-20
0.97	-15.7761	1645.61	-125.28	0.720845	0	-0.368798	-0.0649052	6.77025	-0.515418	1.64637	0.793679	-1.05817	-0.000463401	0	-0.000165971	-6.76545e-21	-3.26147e-21	4.34835e-21
0.98	13.5018	1572.14	-119.492	0.704009	0	-0.368382	0.0509061	5.92747	-0.450522	0.923389	0.927226	-0.657022	-0.000463401	0	-0.000165971	-1.55061e-20	-1.55705e-20	1.10331e-20
0.99	43.1543	1476.79	-110.225	0.686701	0	-0.368115	0.136037	4.65535	-0.347467	0.673022	1.37291	-0.401383	-0.000463401	0	-0.000165971	-7.80726e-21	-1.59262e-20	4.65617e-21
1	69.9361	1360.61	-98.1757	0.669081	0	-0.367898	0.166456	3.23841	-0.233669	0.527467	1.55187	-0.223257	-0.000463401	0	-0.000165971	-1.17512e-20	-3.45734e-20	4.97385e-21
1.01	92.4841	1226.99	-85.2107	0.650873	0	-0.367886	0.145691	1.93289	-0.134233	0.387333	1.36877	-0.0461787	-0.000463401	0	-0.000165971	-0	-0	0
1.02	108.183	1081.45	-72.3498	0.632664	0	-0.367987	0.0914229	0.913904	-0.061141	0.21385	1.27201	0.135037	-0.000463401	0	-0.000165971	3.23414e-21	1.92371e-20	2.04221e-21
1.03	115.394	930.832	-59.8649	0.614858	0	-0.367767	0.0311713	0.251446	-0.0161713	0.0987001	1.2655	0.272406	-0.000463401	0	-0.000165971	-7.41101e-22	-9.50215e-21	-2.04539e-21
1.04	116.153	782.386	-48.4384	0.596691	0	-0.367092	-0.012044	-0.081126	0.0050226	0.174061	1.26891	0.308388	-0.000463401	0	-0.000165971	-0	-0	-0
1.05	111.868	642.622	-38.3055	0.578006	0	-0.366234	-0.0308622	-0.177287	0.0105677	0.217616	1.39399	0.258168	-0.000463401	0	-0.000165971	-1.86493e-21	-1.19462e-20	-2.21244e-21
1.06	101.41	516.809	-28.5361	0.56062	0	-0.365104	-0.030385	-0.154849	0.00855012	0.0519756	1.4702	0.184598	-0.000463401	0	-0.000165971	9.50186e-22	2.68774e-20	3.37471e-21
1.07	85.9061	407.972	-18.5856	0.545904	0	-0.363416	-0.0226004	-0.10733	0.00488955	-0.0673506	1.28389	0.111222	-0.000463401	0	-0.000165971	1.41465e-21	-2.69671e-20	-2.33614e-21
1.08	69.2388	316.61	-9.33064	0.532941	0	-0.361443	-0.0164099	-0.0750382	0.00221141	-0.00111492	0.917045	0.0456982	-0.000463401	0	-0.000165971	-0	0	0
1.09	53.8825	240.948	-1.9599	0.520764	0	-0.359429	-0.0112521	-0.0503164	0.00040928	0.0390182	0.475359	0.0149603	-0.000463401	0	-0.000165971	3.54805e-22	4.32259e-21	1.36039e-22
1.1	40.6493	178.048	2.95744	0.50885	0	-0.356828	-0.000757981	-0.00332003	-5.51468e-05	0.0184261	0.188737	0.0373249	-0.000463401	0	-0.000165971	-0	-0	-0
1.11	29.8821	125.71	5.23668	0.496176	0	-0.352377	0.0214168	0.0900977	0.00375319	-0.0116932	0.220791	0.119013	-0.000463401	0	-0.000165971	3.15562e-22	-5.95842e-21	-3.21176e-21
1.12	20.9465	82.2521	5.13122	0.481055	0	-0.34544	0.0589133	0.231339	0.0144319	-0.0905572	0.657045	0.263101	-0.000463401	0	-0.000165971	-0	0	0
1.13	12.5022	47.0013	3.69435	0.468595	0	-0.335412	0.107398	0.403758	0.0317357	-0.27908	1.32364	0.453298	-0.000463401	0	-0.000165971	-0	0	0
1.14	4.9517	21.7065	2.20824	0.478394	0	-0.315257	0.136794	0.599657	0.0610039	-0.437696	1.46025	0.707183	-0.000463401	0	-0.000165971	1.41195e-20	-4.71058e-20	-2.28127e-20
1.15	0.473941	8.21285	1.21108	0.551608	0	-0.265355	0.047621	0.825218	0.121688	-0.582334	1.21759	1.33034	-0.000463401	0	-0.000165971	8.3289e-21	-1.74148e-20	-1.90273e-20
1.16	-0.681117	3.21505	0.53206	-0.000463401	0	-0.000165971	6.33954e-21	-2.99243e-20	-4.95218e-21	-2.1982	3.28029	3.29438	-0.000463401	0	-0.000165971	-4.63449e-20	6.9159e-20	6.94559e-20
1.17	-0.339498	1.47091	-0.0119822	-0.000463401	0	-0.000165971	8.06638e-21	-3.49485e-20	2.84694e-22	-10.4928	16.2962	8.47685	0.879469	0	-0.665911	-1.20637	1.87359	0.974592
1.18	-0.294577	0.351838	-0.493959	-0.000463401	0	-0.000165971	-2.57706e-22	3.078e-22	-4.32132e-22	-36.0159	63.2545	19.1263	0.932802	0	-0.614312	-1.42618	2.50479	0.757376
1.19	-0.96364	-0.706228	-1.1429	-0.000463401	0	-0.000165971	2.84076e-21	2.08193e-21	3.36921e-21	-81.0814	174.153	35.4348	0.947323	0	-0.597453	-1.3915	2.98877	0.608123
1.2	-2.36975	-1.93935	-1.90076	-0.000463401	0	-0.000165971	-2.42313e-20	-1.98304e-20	-1.94358e-20	-116.813	346.392	52.4947	0.948232	0	-0.588724	-1.16136	3.44383	0.521903
1.21	-3.58269	-2.18098	-1.88109	-0.000463401	0	-0.000165971	-4.22504e-20	-2.57202e-20	-2.21836e-20	-110.683	543.23	62.9203	0.931847	0	-0.582354	-0.784046	3.84807	0.445707
1.22	-0.754417	1.96827	-0.436641	-0.000463401	0	-0.000165971	-1.29155e-20	3.36966e-20	-7.47524e-21	-88.2493	747.358	66.5458	0.904216	0	-0.578512	-0.472489	4.00138	0.356288
1.23	3.65853	6.96475	1.05765	0.266331	0	0.0325486	0.415535	0.791053	0.120127	-95.9415	945.858	72.4173	0.884393	0	-0.575815	-0.37907	3.73713	0.286124
1.24	-0.484292	4.65581	0.398037	-0.000463401	0	-0.000165971	-8.25166e-21	7.93286e-20	6.782e-21	-127.01	1116.6	85.2633	0.874616	0	-0.572327	-0.340955	2.99747	0.228886
1.25	-5.15032	-0.144411	-1.62151	-0.000463401	0	-0.000165971	4.39243e-21	1.23161e-22	1.3829e-21	-143.025	1262.18	98.2434	0.861328	0	-0.568886	-0.212289	1.87342	0.145821
1.26	-0.93106	2.04116	-1.85181	-0.000463401	0	-0.000165971	-3.47009e-20	7.60746e-20	-6.90177e-20	-131.132	1404.04	105.16	0.8405	0	-0.56702	-0.050122	0.536658	0.0401948
1.27	1.82154	6.56108	-0.0774646	0.164052	0	0.0396206	0.0991153	0.357008	-0.00421508	-112.226	1540.45	109.229	0.820951	0	-0.565877	0.0607742	-0.834202	-0.0591511
1.28	-2.27777	5.95045	0.570609	0.353289	0	0.0917576	-0.078328	0.204624	0.0196221	-97.9049	1646.49	114.461	0.805509	0	-0.564529	0.123684	-2.08003	-0.1446
